<?xml version="1.0" encoding="utf-8"?>
<!-- Generator: Adobe Illustrator 25.0.0, SVG Export Plug-In . SVG Version: 6.00 Build 0)  -->
<svg version="1.1" id="Calque_1" xmlns="http://www.w3.org/2000/svg" xmlns:xlink="http://www.w3.org/1999/xlink" x="0px" y="0px"
	 viewBox="0 0 679.2 163.4" style="enable-background:new 0 0 679.2 163.4;" xml:space="preserve">
<style type="text/css">
	.st0{fill:#263949;}
</style>
<image style="overflow:visible;enable-background:new    ;" width="300" height="59" xlink:href="74A779AE.jpeg"  transform="matrix(0.9831 0 0 0.9831 -7857.1812 -8060.1289)">
</image>
<g>
	<path class="st0" d="M356.7,147.3c-0.1,0-0.2,0-0.3,0c-3.2,0-6.4,0-9.6,0c-0.2,0-0.3-0.1-0.4-0.4c-2.7-11.6-5.5-23.2-8.2-34.7
		c-2-8.2-3.9-16.5-5.9-24.8c0-0.2,0-0.4,0-0.6c1.5-3.9,3.6-7,6.1-9.8c2.9-3.1,6.1-5.4,9.4-7.6c2.9-1.9,5.8-3.7,8.6-5.5
		c0.3-0.2,0.4-0.1,0.4,0.4c0,1.2,0,2.4,0,3.6c0,6.1,0,12.2,0,18.2c0,1.8,0,3.6,0,5.3c0,10,0,20,0,30c0,2.2,0,4.4,0,6.6
		c0,2.3,0,4.6-0.1,6.9c0,1.6,0,3.1-0.1,4.6c0,2.2-0.1,4.5-0.1,6.8C356.7,146.7,356.7,147,356.7,147.3z"/>
	<path class="st0" d="M337,147.3c-1.7-0.2-3.4-0.5-5-0.8c-1.9-0.3-3.7-0.7-5.6-1.1c-2-0.4-4-0.9-5.9-1.5c-3.7-1-7.3-2.2-10.9-3.7
		c-5.2-2.1-10.4-4.6-15.4-7.7c-3.1-2-6.1-4.2-8.8-7.1c-2.3-2.4-4.3-5.2-5.7-8.6c-0.8-1.9-1.3-4-1.4-6.2c-0.2-3.3,0.2-6.4,1.1-9.4
		c1.1-3.6,2.6-6.7,4.5-9.6c2.6-4,5.7-7.3,9-10.3c3.4-3.2,7-6,10.7-8.8c1.5-1.2,3.1-2.3,4.6-3.5c0.2-0.1,0.3-0.3,0.5-0.1
		c0.2,0.2,0.3,0.7,0.1,1c-0.1,0.3-0.3,0.5-0.5,0.7c-2.9,2.7-5.5,5.9-7.8,9.5c-2.2,3.3-3.7,7.1-4.5,11.5c-0.5,2.7-0.6,5.3-0.4,8
		c0.3,6.2,2.1,11.6,4.9,16.5c1.9,3.2,4.1,6.1,6.4,8.7c3,3.4,6.1,6.5,9.4,9.4c4.4,3.8,9,7,13.9,9.4c1.1,0.6,2.3,0.9,3.5,1.3
		c1.1,0.4,2.2,1,3.1,2c0,0,0.1,0.1,0.1,0.1C337,147.3,337,147.3,337,147.3z"/>
	<path class="st0" d="M358,147.3c0.5-0.7,1.2-1.2,1.9-1.6c1.2-0.6,2.5-1,3.7-1.6c2.3-1,4.5-2.2,6.8-3.6c3.8-2.3,7.5-5,11-8.1
		c3.4-3,6.6-6.4,9.4-10.3s5.2-8.2,6.9-13.3c0.9-2.8,1.5-5.7,1.8-8.8c0.4-5.5-0.5-10.6-2.6-15.3c-1.2-2.7-2.7-5.1-4.3-7.3
		c-2-2.7-4.1-5.1-6.3-7.4c-0.3-0.3-0.4-0.5-0.3-1c0.2,0.1,0.4,0.2,0.6,0.3c4.8,3.1,9.4,6.4,13.8,10.3c3.4,3,6.6,6.3,9.5,10.1
		c2.4,3.2,4.4,6.7,5.8,10.8c0.7,2.2,1.2,4.5,1.4,6.9c0.2,3.8-0.6,7.2-2,10.4c-1.4,3-3.2,5.4-5.2,7.6c-3.4,3.6-7.2,6.2-11.2,8.5
		c-4.4,2.5-9,4.5-13.6,6.4c-4.3,1.7-8.6,3.1-13,4.2c-2.4,0.6-4.8,1.1-7.1,1.5c-2.1,0.4-4.1,0.6-6.2,0.9
		C358.3,147.3,358.2,147.3,358,147.3z"/>
	<path class="st0" d="M328.2,87.1c-0.3-1.3-0.6-2.4-0.9-3.7c-0.4-1.7-0.6-3.5-0.6-5.3c0-3.5,0.8-6.7,2.2-9.7
		c1.1-2.3,2.6-4.3,4.2-6.2c2.9-3.3,6.2-5.8,9.6-8.1c3.3-2.2,6.7-4.4,10-6.6c3-2,5.9-4,8.7-6.5c1.9-1.7,3.7-3.6,5.1-6
		c1.5-2.4,2.5-5.2,2.9-8.2c0.1-0.6,0.2-1.3,0.2-2c0.2,0.2,0.5,0.5,0.7,0.7c1,1,2.1,2,3.1,3.1c1.3,1.3,2.4,2.8,3.1,4.7
		c1.2,3.7,0.9,7.2-1,10.4c-1.3,2.1-2.9,3.7-4.6,5.1c-3.4,2.9-7,5.4-10.6,7.7c-4.5,2.9-9.1,5.7-13.6,8.6c-3.4,2.2-6.6,4.6-9.6,7.4
		c-2,1.8-3.8,3.9-5.4,6.3c-1.4,2.2-2.4,4.7-3.1,7.3c-0.1,0.3-0.1,0.5-0.2,0.8C328.3,86.9,328.3,87,328.2,87.1z"/>
	<path class="st0" d="M363.1,26.1c-0.8,0-1.5,0-2.3,0c-2.1,0.1-4.1,0.2-6.2,0.4c-2,0.2-4,0.6-5.8,1.5c-0.8,0.4-1.5,0.9-2.1,1.7
		c-1.1,1.4-0.9,3.6-0.3,4.9c0.5,1,1.2,1.8,2,2.4c1.1,0.8,2.2,1.5,3.3,2.3c0.9,0.6,1.7,1.3,2.3,2.4c0.1,0.1,0.1,0.2,0.2,0.4
		c-0.5,0.4-0.9,0.7-1.4,1c-3.1,2.2-6.3,4.4-9.5,6.6c-2.8,1.9-5.5,4-7.9,6.5c-1,1-1.8,2-2.7,3c-0.1,0.1-0.1,0.1-0.1,0.2
		c0.1-1.3,0.3-2.6,0.3-4c0.1-3-0.5-5.8-1.8-8.2c-0.9-1.6-1.8-3.2-2.7-4.7c-1-1.7-2-3.5-2.5-5.6c-0.9-3.6-0.5-7,0.8-10.3
		c1.5-3.8,4-6.2,7.1-7.4c1.4-0.5,2.8-0.9,4.2-1c1.3-0.1,2.6-0.1,3.9,0c2.2,0.1,4.4,0.6,6.5,1.2c5,1.4,9.8,3.6,14.5,6.4
		c0.1,0,0.1,0.1,0.2,0.1c0,0,0,0,0,0C363.1,26,363.1,26,363.1,26.1z"/>
	<path class="st0" d="M310.5,45.8c-0.5,0.6-1,1.2-1.4,1.7c-0.8,0.8-1.5,1.5-2.3,2.3c-1.7,2-1.5,5.1-0.4,7.1c0.8,1.4,1.8,2.3,2.9,3.1
		c1.9,1.3,3.8,2.1,5.8,2.9c1.3,0.5,2.6,1.1,3.9,1.7c0.1,0,0.2,0.1,0.3,0.2c-0.2,0-0.5,0.1-0.8,0.1c-2.7,0.3-5.2,1.3-7.8,2.1
		c-2,0.6-4,1.2-6,1.6c-1.9,0.3-3.7,0.4-5.6,0.1c-2.8-0.5-5.3-1.9-7.4-4.6c-1.8-2.3-2.5-5.2-2.2-8.4c0.2-2.6,1.1-4.7,2.6-6.5
		c1.6-1.9,3.5-3,5.5-3.8c2.4-0.9,4.9-1.2,7.4-1c1.7,0.1,3.4,0.5,5,1.1C310.1,45.6,310.2,45.7,310.5,45.8z"/>
	<path class="st0" d="M329.3,62.6c-0.4,0-0.8,0-1.2,0.1c-2.7,0.1-5.1-0.7-7.3-2.8c-1.4-1.4-2.5-3.1-3.5-4.9
		c-1.1-2.2-2.1-4.4-3.2-6.5c-0.9-1.8-1.9-3.6-3.2-5.1c-1.8-2.1-3.8-3.6-6.1-4.4c-1.5-0.5-3-0.9-4.5-1.1c-1.5-0.2-3-0.3-4.6-0.4
		c-0.2,0-0.3-0.1-0.3-0.4c0-0.2,0-0.4,0.1-0.5c0.1-0.2,0.3-0.4,0.5-0.6c1.7-1.4,3.4-3,5.2-4.2c1.8-1.1,3.6-2,5.5-2.3
		c3.4-0.5,6.5,0.4,9.3,2.9c1.9,1.7,3.5,3.9,4.8,6.4c1.9,3.5,3.3,7.2,4.6,11.2c1.2,3.9,2.4,7.8,3.5,11.7
		C329,61.8,329.1,62.2,329.3,62.6z"/>
	<path class="st0" d="M373.1,63.4c3.8,0.1,7.3,1.4,10.3,4.4c2.6,2.5,4.4,5.8,5.2,9.9c0.9,4.5,0.1,8.5-2.1,12
		c-1.7,2.7-3.9,4.5-6.5,5.3c-1.5,0.4-3,0.5-4.6,0.3c-2.2-0.2-4.3-1-6.3-2.2c-2.4-1.4-4.4-3.3-6.1-5.9c-1.4-2.3-2.4-4.9-2.7-7.8
		c-0.5-5.1,0.9-9.2,3.9-12.3c1.8-1.9,3.8-2.9,6.1-3.3C371.3,63.6,372.2,63.5,373.1,63.4z M374.6,65.6c-1.4,0-2.7,0.3-4,0.8
		c-1.4,0.6-2.6,1.6-3.5,3.2c-0.9,1.8-1.2,3.8-1.1,5.9c0.1,2.1,0.6,4,1.5,5.7c1.3,2.5,3.1,4.2,5.1,5.5c2.6,1.6,5.3,2.2,8.1,1.5
		c1.6-0.4,3.1-1.4,4.1-3.2c1.5-2.5,1.8-5.5,1.4-8.5c-0.4-3-1.7-5.3-3.5-7.2C380.4,66.9,377.7,65.7,374.6,65.6z"/>
	<path class="st0" d="M407,32.2c-1.2,0.6-2.4,1.2-3.6,1.8c-3.3,1.8-6.5,4.1-9.3,7c-2.1,2.3-4,4.9-5.3,8.1c-0.8,2-1.2,4-1.4,6.2
		c-0.3,4,0.5,7.7,2.2,11.1c0.5,0.9,0.9,1.9,1.4,2.8c0,0.1,0.1,0.2,0.1,0.3c-0.5-0.3-1-0.7-1.5-1c-2.7-1.9-5.3-4.2-7.6-7
		c-1.6-2-3.1-4.2-4-6.9c-0.5-1.5-0.8-3-0.7-4.7c0.1-2,0.6-3.8,1.5-5.4c1.2-2.2,2.9-3.9,4.6-5.3c2.5-2.1,5.2-3.5,8-4.5
		c2.5-0.9,5-1.6,7.6-2c1.4-0.2,2.9-0.4,4.3-0.5C404.6,32.2,405.9,32.2,407,32.2z"/>
	<path class="st0" d="M323.7,92.4c0.8,0.2,1.5,0.6,2.2,1.1c1.1,0.9,2,2.1,2.8,3.3c0.8,1.1,1.6,2.3,2.7,3c0.5,0.3,1,0.6,1.5,0.8
		c0.2,0.1,0.3,0.2,0.4,0.5c1.3,5.7,2.6,11.3,4,16.9c0.9,4,1.8,8.1,2.7,12.1c0,0.1,0,0.2,0,0.3c-1.7,0.3-3.1-0.5-4.2-2.2
		c-0.5-0.8-0.9-1.5-1.5-2.2c-0.8-1.2-1.9-1.7-3.1-1.7c-0.2,0-0.3,0-0.3-0.3c-1.2-5.4-2.5-10.7-3.8-16.1c-1.2-5.1-2.5-10.2-3.5-15.4
		C323.7,92.5,323.7,92.5,323.7,92.4z"/>
	<path class="st0" d="M313.6,88.2c1.2,0.2,2.2,0.7,3,1.7c0.8,0.9,1.5,1.8,2.2,2.8c0.9,1.2,1.9,2.3,3.1,2.9c0.1,0,0.2,0.2,0.2,0.4
		c0.6,2.5,1.1,5,1.7,7.5c0.8,3.6,1.6,7.2,2.5,10.8c0.2,0.8,0.3,1.6,0.4,2.4c-0.7-0.1-1.4-0.4-1.9-1c-0.8-0.8-1.4-1.9-2-2.9
		c-0.5-0.7-1-1.5-1.5-2.1c-0.8-0.9-1.7-1-2.6-0.9c-0.2,0-0.3,0-0.4-0.3c-1.4-5.2-2.6-10.4-3.7-15.8c-0.4-1.7-0.7-3.5-1-5.2
		C313.7,88.4,313.7,88.3,313.6,88.2z"/>
	<path class="st0" d="M320,123.6c1.6,0.1,3.3,0.7,5,1.7c1.5,0.9,2.9,2,4,3.6c0.6,1,1.1,2.1,1.1,3.4c0,1.4-0.5,2.5-1.5,3.1
		c-1.3,0.8-2.6,1-4,0.7c-2.1-0.5-4-1.4-5.8-2.9c-1-0.9-1.9-1.9-2.5-3.3c-0.5-1.1-0.6-2.4-0.4-3.7c0.2-1.1,0.7-1.7,1.4-2.1
		C318.1,123.8,318.9,123.6,320,123.6z"/>
	<path class="st0" d="M314.5,103.3c-0.8,0-1.5-0.4-2-1.1c-0.3-0.4-0.6-0.9-0.9-1.3c-0.8-1.2-1.2-1.5-2.4-1.8
		c-0.8-4.6-2.1-9.1-2.7-13.8c0.9,0.2,1.7,0.7,2.3,1.5c0.7,0.9,1.4,1.9,2.1,2.9c0.4,0.6,0.9,1.1,1.3,1.6c0.1,0.1,0.2,0.3,0.2,0.4
		c0.7,3.8,1.4,7.7,2.1,11.6C314.5,103.2,314.5,103.2,314.5,103.3z"/>
</g>
<g>
	<path class="st0" d="M85.7,135.7h-3.8c-0.4,0-0.8-0.1-1.1-0.3c-0.3-0.2-0.5-0.5-0.6-0.8l-2-5.4H67.1l-2,5.4
		c-0.1,0.3-0.3,0.5-0.6,0.8c-0.3,0.2-0.6,0.4-1.1,0.4h-3.9L70.1,109h5.1L85.7,135.7z M68.4,125.6h8.5l-3.2-8.9
		c-0.2-0.4-0.3-0.9-0.5-1.4c-0.2-0.5-0.3-1.1-0.5-1.8c-0.2,0.6-0.3,1.2-0.5,1.8c-0.2,0.5-0.3,1-0.5,1.4L68.4,125.6z"/>
	<path class="st0" d="M93.6,126.3v9.4h-5V109h8.7c1.8,0,3.3,0.2,4.6,0.6c1.3,0.4,2.4,1,3.2,1.8c0.8,0.8,1.5,1.7,1.9,2.7
		c0.4,1.1,0.6,2.2,0.6,3.4c0,1.3-0.2,2.5-0.7,3.6c-0.4,1.1-1.1,2-1.9,2.8s-1.9,1.4-3.2,1.8s-2.8,0.7-4.5,0.7H93.6z M93.6,122.4h3.7
		c0.9,0,1.7-0.1,2.4-0.3c0.7-0.2,1.2-0.6,1.7-1c0.4-0.4,0.8-0.9,1-1.6s0.3-1.3,0.3-2c0-0.7-0.1-1.4-0.3-1.9s-0.6-1.1-1-1.5
		c-0.4-0.4-1-0.7-1.7-0.9c-0.7-0.2-1.5-0.3-2.4-0.3h-3.7V122.4z"/>
	<path class="st0" d="M125.8,113.9c-0.1,0.3-0.3,0.5-0.5,0.6s-0.4,0.2-0.6,0.2s-0.5-0.1-0.8-0.3c-0.3-0.2-0.7-0.4-1.1-0.6
		c-0.4-0.2-0.9-0.4-1.5-0.6s-1.2-0.3-2-0.3c-0.7,0-1.3,0.1-1.8,0.2s-0.9,0.4-1.3,0.7c-0.3,0.3-0.6,0.7-0.8,1.1
		c-0.2,0.4-0.3,0.9-0.3,1.4c0,0.6,0.2,1.2,0.5,1.6s0.8,0.8,1.4,1.1s1.2,0.6,2,0.8c0.7,0.2,1.5,0.5,2.3,0.8c0.8,0.3,1.5,0.6,2.3,0.9
		c0.7,0.3,1.4,0.8,2,1.3s1,1.2,1.4,2s0.5,1.7,0.5,2.8c0,1.2-0.2,2.3-0.6,3.4s-1,2-1.8,2.8s-1.8,1.4-2.9,1.9
		c-1.2,0.4-2.5,0.7-3.9,0.7c-0.8,0-1.7-0.1-2.5-0.2s-1.6-0.4-2.4-0.7c-0.8-0.3-1.5-0.7-2.1-1.1c-0.7-0.4-1.2-0.9-1.8-1.4l1.4-2.4
		c0.1-0.2,0.3-0.3,0.5-0.4c0.2-0.1,0.4-0.2,0.6-0.2c0.3,0,0.6,0.1,1,0.4s0.8,0.5,1.3,0.8s1.1,0.6,1.7,0.8s1.4,0.4,2.4,0.4
		c1.4,0,2.5-0.3,3.3-1s1.2-1.6,1.2-2.9c0-0.7-0.2-1.3-0.5-1.7c-0.3-0.4-0.8-0.8-1.4-1.1s-1.2-0.6-2-0.8c-0.7-0.2-1.5-0.4-2.2-0.7
		c-0.8-0.2-1.5-0.5-2.2-0.9s-1.4-0.8-2-1.3c-0.6-0.6-1-1.2-1.4-2.1s-0.5-1.9-0.5-3.1c0-1,0.2-1.9,0.6-2.8s0.9-1.7,1.7-2.5
		c0.7-0.7,1.7-1.3,2.7-1.7c1.1-0.4,2.3-0.7,3.7-0.7c1.6,0,3,0.2,4.4,0.7s2.5,1.2,3.4,2.1L125.8,113.9z"/>
	<path class="st0" d="M164,122.4c0,2-0.3,3.8-1,5.4s-1.6,3.1-2.8,4.3s-2.6,2.2-4.3,2.9c-1.7,0.7-3.5,1-5.5,1c-2,0-3.9-0.3-5.5-1
		c-1.7-0.7-3.1-1.6-4.3-2.9s-2.1-2.7-2.8-4.3s-1-3.5-1-5.4s0.3-3.8,1-5.4c0.6-1.7,1.6-3.1,2.8-4.3c1.2-1.2,2.6-2.2,4.3-2.8
		c1.7-0.7,3.5-1,5.5-1c2,0,3.9,0.3,5.5,1s3.1,1.6,4.3,2.8c1.2,1.2,2.1,2.7,2.8,4.3C163.7,118.6,164,120.4,164,122.4z M159,122.4
		c0-1.5-0.2-2.8-0.6-3.9c-0.4-1.2-0.9-2.2-1.7-3c-0.7-0.8-1.6-1.4-2.6-1.9c-1-0.4-2.2-0.7-3.5-0.7s-2.5,0.2-3.5,0.7
		c-1,0.4-1.9,1.1-2.7,1.9c-0.7,0.8-1.3,1.8-1.7,3c-0.4,1.2-0.6,2.5-0.6,3.9s0.2,2.8,0.6,3.9c0.4,1.2,1,2.2,1.7,3
		c0.7,0.8,1.6,1.4,2.7,1.9c1.1,0.4,2.2,0.6,3.5,0.6c1.3,0,2.5-0.2,3.5-0.6c1-0.4,1.9-1.1,2.6-1.9c0.7-0.8,1.3-1.8,1.7-2.9
		C158.8,125.2,159,123.8,159,122.4z"/>
	<path class="st0" d="M167.7,135.7v-18.9h2.8c0.6,0,1,0.3,1.2,0.8l0.3,1.5c0.4-0.4,0.8-0.8,1.2-1.1c0.4-0.3,0.9-0.6,1.4-0.8
		c0.5-0.2,1-0.4,1.5-0.5c0.5-0.1,1.1-0.2,1.8-0.2c1,0,1.9,0.2,2.8,0.5c0.8,0.3,1.5,0.8,2,1.5c0.5,0.6,0.9,1.4,1.2,2.3
		s0.4,1.8,0.4,2.9v12.1h-4.6v-12.1c0-1.2-0.3-2.1-0.8-2.7c-0.5-0.6-1.3-0.9-2.4-0.9c-0.8,0-1.5,0.2-2.2,0.5s-1.3,0.8-2,1.5v13.7
		L167.7,135.7L167.7,135.7z"/>
	<path class="st0" d="M193.6,108.3v27.4H189v-27.4H193.6z"/>
	<path class="st0" d="M204.2,111.3c0,0.4-0.1,0.8-0.2,1.1c-0.2,0.3-0.4,0.7-0.6,0.9c-0.3,0.3-0.6,0.5-0.9,0.6
		c-0.4,0.2-0.7,0.2-1.1,0.2c-0.4,0-0.8-0.1-1.1-0.2s-0.7-0.4-0.9-0.6c-0.3-0.3-0.5-0.6-0.6-0.9c-0.2-0.3-0.2-0.7-0.2-1.1
		c0-0.4,0.1-0.8,0.2-1.2s0.4-0.7,0.6-0.9c0.3-0.3,0.6-0.5,0.9-0.6c0.4-0.2,0.7-0.2,1.1-0.2c0.4,0,0.8,0.1,1.1,0.2
		c0.4,0.2,0.7,0.4,0.9,0.6c0.3,0.3,0.5,0.6,0.6,0.9C204.2,110.5,204.2,110.9,204.2,111.3z M203.6,116.8v18.9H199v-18.9
		C199,116.8,203.6,116.8,203.6,116.8z"/>
	<path class="st0" d="M208.7,135.7v-18.9h2.8c0.6,0,1,0.3,1.2,0.8l0.3,1.5c0.4-0.4,0.8-0.8,1.2-1.1c0.4-0.3,0.9-0.6,1.4-0.8
		c0.5-0.2,1-0.4,1.5-0.5c0.5-0.1,1.1-0.2,1.8-0.2c1,0,2,0.2,2.8,0.5c0.8,0.3,1.5,0.8,2,1.5c0.5,0.6,0.9,1.4,1.2,2.3s0.4,1.8,0.4,2.9
		v12.1h-4.6v-12.1c0-1.2-0.3-2.1-0.8-2.7c-0.5-0.6-1.3-0.9-2.4-0.9c-0.8,0-1.5,0.2-2.2,0.5s-1.3,0.8-2,1.5v13.7L208.7,135.7
		L208.7,135.7z"/>
	<path class="st0" d="M237.5,116.5c1.2,0,2.3,0.2,3.3,0.6c1,0.4,1.9,0.9,2.6,1.7c0.7,0.7,1.3,1.6,1.7,2.7c0.4,1.1,0.6,2.3,0.6,3.7
		c0,0.3,0,0.6,0,0.9s-0.1,0.4-0.2,0.5c-0.1,0.1-0.2,0.2-0.3,0.3c-0.1,0.1-0.3,0.1-0.5,0.1H233c0.1,1.9,0.7,3.4,1.6,4.3
		s2.1,1.4,3.6,1.4c0.7,0,1.4-0.1,1.9-0.3c0.5-0.2,1-0.4,1.4-0.6s0.8-0.4,1.1-0.6c0.3-0.2,0.6-0.3,0.9-0.3c0.2,0,0.3,0,0.5,0.1
		c0.1,0.1,0.2,0.2,0.4,0.3l1.3,1.7c-0.5,0.6-1.1,1.1-1.7,1.5c-0.6,0.4-1.3,0.7-2,1c-0.7,0.2-1.4,0.4-2.1,0.5
		c-0.7,0.1-1.4,0.1-2.1,0.1c-1.3,0-2.5-0.2-3.7-0.7s-2.1-1.1-3-1.9c-0.8-0.9-1.5-1.9-2-3.2c-0.5-1.3-0.7-2.7-0.7-4.4
		c0-1.3,0.2-2.5,0.6-3.7c0.4-1.1,1-2.1,1.8-3c0.8-0.8,1.7-1.5,2.9-2C234.9,116.7,236.1,116.5,237.5,116.5z M237.6,119.8
		c-1.3,0-2.4,0.4-3.1,1.1s-1.2,1.8-1.4,3.2h8.6c0-0.6-0.1-1.2-0.2-1.7s-0.4-1-0.7-1.4c-0.3-0.4-0.8-0.7-1.3-0.9
		C238.9,119.9,238.3,119.8,237.6,119.8z"/>
</g>
<g>
	<path class="st0" d="M35.2,67.3h-2.5c-0.3,0-0.5-0.1-0.7-0.2c-0.2-0.2-0.3-0.4-0.4-0.6l-1.3-4.1h-7.3l-1.3,4.1
		c-0.1,0.2-0.2,0.4-0.4,0.6c-0.2,0.2-0.4,0.3-0.7,0.3H18l6.9-20.3h3.4L35.2,67.3z M23.8,59.7h5.6L27.2,53c-0.1-0.3-0.2-0.7-0.3-1.1
		s-0.2-0.8-0.4-1.3c-0.1,0.5-0.2,0.9-0.3,1.3c-0.1,0.4-0.2,0.8-0.3,1.1L23.8,59.7z"/>
	<path class="st0" d="M39.8,46.5v20.8h-3V46.5H39.8z"/>
	<path class="st0" d="M47.2,52.7c0.5,0,1,0.1,1.5,0.2c0.5,0.1,0.9,0.3,1.3,0.5h3.6v1.3c0,0.2,0,0.4-0.2,0.5
		c-0.1,0.1-0.3,0.2-0.5,0.2l-1.1,0.2c0.1,0.2,0.1,0.5,0.2,0.8c0,0.3,0.1,0.6,0.1,0.8c0,0.7-0.1,1.3-0.4,1.9c-0.2,0.6-0.6,1.1-1,1.5
		c-0.4,0.4-1,0.7-1.5,0.9S47.9,62,47.2,62c-0.5,0-0.9,0-1.4-0.2c-0.4,0.3-0.6,0.6-0.6,0.9c0,0.3,0.1,0.5,0.3,0.6
		c0.2,0.1,0.5,0.2,0.9,0.3c0.4,0.1,0.8,0.1,1.3,0.1c0.5,0,1,0,1.5,0.1s1,0.1,1.5,0.2c0.5,0.1,0.9,0.3,1.3,0.6c0.4,0.2,0.7,0.6,0.9,1
		c0.2,0.4,0.3,1,0.3,1.7c0,0.6-0.1,1.3-0.4,1.9s-0.7,1.1-1.2,1.6c-0.5,0.5-1.2,0.8-1.9,1.1c-0.8,0.3-1.6,0.4-2.6,0.4
		c-1,0-1.8-0.1-2.5-0.3s-1.3-0.5-1.7-0.8c-0.5-0.3-0.8-0.8-1-1.2s-0.3-0.9-0.3-1.4c0-0.7,0.2-1.2,0.5-1.7s0.8-0.8,1.5-1.1
		c-0.3-0.2-0.6-0.5-0.7-0.8c-0.2-0.3-0.3-0.8-0.3-1.3c0-0.2,0-0.4,0.1-0.7s0.2-0.5,0.3-0.7s0.3-0.4,0.5-0.6s0.4-0.4,0.7-0.5
		c-0.6-0.4-1.1-0.9-1.5-1.6s-0.5-1.4-0.5-2.3c0-0.7,0.1-1.3,0.4-1.9c0.2-0.6,0.6-1.1,1-1.5s1-0.7,1.6-0.9
		C45.8,52.8,46.5,52.7,47.2,52.7z M50.5,67.9c0-0.3-0.1-0.5-0.2-0.7s-0.3-0.3-0.6-0.4s-0.5-0.2-0.9-0.2c-0.3-0.1-0.7-0.1-1.1-0.1
		s-0.8,0-1.2,0c-0.4,0-0.8-0.1-1.2-0.2c-0.3,0.2-0.6,0.5-0.8,0.8s-0.3,0.6-0.3,1c0,0.2,0,0.5,0.2,0.7s0.3,0.4,0.5,0.6
		c0.2,0.2,0.5,0.3,0.9,0.4c0.4,0.1,0.8,0.1,1.4,0.1c0.6,0,1-0.1,1.5-0.2s0.7-0.2,1-0.4c0.3-0.2,0.5-0.4,0.6-0.6
		C50.5,68.5,50.5,68.2,50.5,67.9z M47.2,59.8c0.4,0,0.7-0.1,1-0.2c0.3-0.1,0.5-0.3,0.7-0.5c0.2-0.2,0.3-0.5,0.4-0.7s0.1-0.6,0.1-1
		c0-0.7-0.2-1.3-0.5-1.7s-0.9-0.6-1.7-0.6s-1.3,0.2-1.7,0.6c-0.4,0.4-0.5,1-0.5,1.7c0,0.3,0,0.7,0.1,0.9c0.1,0.3,0.2,0.5,0.4,0.8
		s0.4,0.4,0.7,0.5C46.5,59.7,46.9,59.8,47.2,59.8z"/>
	<path class="st0" d="M60.4,52.7c0.8,0,1.5,0.2,2.2,0.4c0.7,0.3,1.2,0.7,1.7,1.3c0.5,0.6,0.8,1.2,1.1,2c0.3,0.8,0.4,1.7,0.4,2.8
		c0,0.3,0,0.5,0,0.7c0,0.2-0.1,0.3-0.1,0.4s-0.1,0.2-0.2,0.2s-0.2,0.1-0.3,0.1h-7.7c0.1,1.5,0.4,2.6,1,3.2c0.6,0.7,1.4,1,2.4,1
		c0.5,0,0.9-0.1,1.3-0.2c0.3-0.1,0.7-0.3,0.9-0.4c0.3-0.2,0.5-0.3,0.7-0.4c0.2-0.1,0.4-0.2,0.6-0.2c0.1,0,0.2,0,0.3,0.1
		s0.2,0.1,0.2,0.2l0.9,1.3c-0.3,0.4-0.7,0.8-1.1,1.1c-0.4,0.3-0.8,0.6-1.3,0.7s-0.9,0.3-1.4,0.4c-0.5,0.1-0.9,0.1-1.4,0.1
		c-0.9,0-1.7-0.2-2.4-0.5c-0.8-0.3-1.4-0.8-2-1.5s-1-1.4-1.3-2.4c-0.3-1-0.5-2.1-0.5-3.3c0-1,0.1-1.9,0.4-2.8
		c0.3-0.9,0.7-1.6,1.2-2.3s1.1-1.2,1.9-1.5C58.7,52.9,59.5,52.7,60.4,52.7z M60.5,55.2c-0.9,0-1.6,0.3-2.1,0.8s-0.8,1.4-1,2.4h5.7
		c0-0.5,0-0.9-0.2-1.3s-0.3-0.7-0.5-1s-0.5-0.5-0.8-0.7C61.3,55.3,60.9,55.2,60.5,55.2z M64.7,46.9l-3,3.7c-0.2,0.2-0.3,0.3-0.4,0.4
		S60.9,51,60.7,51h-1.8l1.7-3.4c0.1-0.2,0.3-0.4,0.4-0.5c0.2-0.1,0.4-0.2,0.7-0.2L64.7,46.9L64.7,46.9z"/>
	<path class="st0" d="M68,67.3V53h1.8c0.3,0,0.5,0.1,0.7,0.2c0.1,0.1,0.2,0.4,0.2,0.7l0.2,1.7c0.4-0.9,1-1.6,1.6-2.1s1.3-0.8,2-0.8
		c0.6,0,1.1,0.2,1.5,0.5l-0.4,2.6c0,0.2-0.1,0.3-0.2,0.4s-0.2,0.1-0.3,0.1c-0.1,0-0.3,0-0.5-0.1s-0.5-0.1-0.8-0.1
		c-0.6,0-1.2,0.2-1.6,0.6c-0.4,0.4-0.8,1-1.1,1.7v8.9L68,67.3L68,67.3z"/>
	<path class="st0" d="M81.4,48.8c0,0.3-0.1,0.6-0.2,0.8s-0.2,0.5-0.4,0.7c-0.2,0.2-0.4,0.3-0.6,0.5c-0.2,0.1-0.5,0.2-0.8,0.2
		s-0.5-0.1-0.7-0.2c-0.2-0.1-0.4-0.3-0.6-0.5s-0.3-0.4-0.4-0.7c-0.1-0.3-0.2-0.5-0.2-0.8c0-0.3,0.1-0.6,0.2-0.9s0.2-0.5,0.4-0.7
		c0.2-0.2,0.4-0.3,0.6-0.5c0.2-0.1,0.5-0.2,0.7-0.2c0.3,0,0.5,0.1,0.8,0.2c0.2,0.1,0.4,0.3,0.6,0.5s0.3,0.4,0.4,0.7
		C81.3,48.2,81.4,48.5,81.4,48.8z M80.9,53v14.4h-3V53H80.9z"/>
	<path class="st0" d="M89.2,52.7c0.8,0,1.5,0.2,2.2,0.4c0.7,0.3,1.2,0.7,1.7,1.3c0.5,0.6,0.8,1.2,1.1,2c0.3,0.8,0.4,1.7,0.4,2.8
		c0,0.3,0,0.5,0,0.7c0,0.2-0.1,0.3-0.1,0.4s-0.1,0.2-0.2,0.2s-0.2,0.1-0.3,0.1h-7.7c0.1,1.5,0.4,2.6,1,3.2c0.6,0.7,1.4,1,2.4,1
		c0.5,0,0.9-0.1,1.3-0.2c0.3-0.1,0.7-0.3,0.9-0.4c0.3-0.2,0.5-0.3,0.7-0.4c0.2-0.1,0.4-0.2,0.6-0.2c0.1,0,0.2,0,0.3,0.1
		s0.2,0.1,0.2,0.2l0.9,1.3c-0.3,0.4-0.7,0.8-1.1,1.1c-0.4,0.3-0.8,0.6-1.3,0.7c-0.4,0.2-0.9,0.3-1.4,0.4c-0.5,0.1-0.9,0.1-1.4,0.1
		c-0.9,0-1.7-0.2-2.4-0.5c-0.8-0.3-1.4-0.8-1.9-1.5c-0.6-0.7-1-1.4-1.3-2.4c-0.3-1-0.5-2.1-0.5-3.3c0-1,0.1-1.9,0.4-2.8
		c0.3-0.9,0.7-1.6,1.2-2.3c0.5-0.6,1.1-1.2,1.9-1.5C87.5,52.9,88.3,52.7,89.2,52.7z M89.3,55.2c-0.9,0-1.6,0.3-2.1,0.8
		s-0.8,1.4-0.9,2.4H92c0-0.5-0.1-0.9-0.2-1.3s-0.3-0.7-0.5-1s-0.5-0.5-0.8-0.7C90.1,55.3,89.8,55.2,89.3,55.2z"/>
	<path class="st0" d="M104.9,60.2v7.1h-3.3V47.1h5.7c1.2,0,2.2,0.2,3.1,0.5s1.6,0.8,2.1,1.3c0.6,0.6,1,1.2,1.2,2
		c0.3,0.8,0.4,1.7,0.4,2.6c0,1-0.1,1.9-0.4,2.7c-0.3,0.8-0.7,1.5-1.3,2.1s-1.3,1-2.1,1.4c-0.8,0.3-1.8,0.5-3,0.5L104.9,60.2
		L104.9,60.2z M104.9,57.3h2.5c0.6,0,1.1-0.1,1.6-0.3s0.8-0.4,1.1-0.7c0.3-0.3,0.5-0.7,0.7-1.2c0.2-0.5,0.2-1,0.2-1.5
		c0-0.5-0.1-1-0.2-1.5c-0.2-0.4-0.4-0.8-0.7-1.1c-0.3-0.3-0.7-0.5-1.1-0.7c-0.4-0.2-1-0.2-1.6-0.2h-2.5V57.3z"/>
	<path class="st0" d="M116.3,67.3V53h1.8c0.3,0,0.5,0.1,0.7,0.2c0.1,0.1,0.2,0.4,0.2,0.7l0.2,1.7c0.4-0.9,1-1.6,1.6-2.1
		s1.3-0.8,2-0.8c0.6,0,1.1,0.2,1.5,0.5l-0.4,2.6c0,0.2-0.1,0.3-0.2,0.4s-0.2,0.1-0.3,0.1c-0.1,0-0.3,0-0.5-0.1s-0.5-0.1-0.8-0.1
		c-0.6,0-1.2,0.2-1.6,0.6c-0.4,0.4-0.8,1-1.1,1.7v8.9L116.3,67.3L116.3,67.3z"/>
	<path class="st0" d="M131.1,52.7c0.8,0,1.5,0.2,2.2,0.4c0.7,0.3,1.2,0.7,1.7,1.3c0.5,0.6,0.9,1.2,1.1,2c0.3,0.8,0.4,1.7,0.4,2.8
		c0,0.3,0,0.5,0,0.7c0,0.2-0.1,0.3-0.1,0.4s-0.1,0.2-0.2,0.2c-0.1,0-0.2,0.1-0.3,0.1h-7.7c0.1,1.5,0.4,2.6,1,3.2
		c0.6,0.7,1.4,1,2.4,1c0.5,0,0.9-0.1,1.3-0.2c0.4-0.1,0.7-0.3,0.9-0.4c0.3-0.2,0.5-0.3,0.7-0.4s0.4-0.2,0.6-0.2c0.1,0,0.2,0,0.3,0.1
		s0.2,0.1,0.2,0.2l0.9,1.3c-0.3,0.4-0.7,0.8-1.1,1.1c-0.4,0.3-0.9,0.6-1.3,0.7s-0.9,0.3-1.4,0.4c-0.5,0.1-0.9,0.1-1.4,0.1
		c-0.9,0-1.7-0.2-2.4-0.5c-0.8-0.3-1.4-0.8-1.9-1.5c-0.6-0.7-1-1.4-1.3-2.4c-0.3-1-0.5-2.1-0.5-3.3c0-1,0.1-1.9,0.4-2.8
		c0.3-0.9,0.7-1.6,1.2-2.3c0.5-0.6,1.1-1.2,1.9-1.5C129.4,52.9,130.2,52.7,131.1,52.7z M131.2,55.2c-0.9,0-1.6,0.3-2.1,0.8
		s-0.8,1.4-0.9,2.4h5.6c0-0.5-0.1-0.9-0.2-1.3s-0.3-0.7-0.5-1s-0.5-0.5-0.8-0.7C132,55.3,131.7,55.2,131.2,55.2z"/>
	<path class="st0" d="M146.2,55.8c-0.1,0.2-0.2,0.2-0.3,0.3s-0.2,0.1-0.3,0.1c-0.1,0-0.3,0-0.5-0.1s-0.4-0.2-0.6-0.3
		c-0.2-0.1-0.5-0.2-0.8-0.3c-0.3-0.1-0.6-0.1-1-0.1c-0.6,0-1.1,0.1-1.4,0.4s-0.5,0.7-0.5,1.1c0,0.3,0.1,0.6,0.3,0.8s0.4,0.4,0.7,0.5
		c0.3,0.2,0.6,0.3,1,0.4s0.7,0.3,1.1,0.4c0.4,0.2,0.8,0.3,1.1,0.5s0.7,0.4,1,0.7c0.3,0.3,0.5,0.7,0.7,1.1s0.3,0.9,0.3,1.5
		c0,0.7-0.1,1.3-0.3,1.9s-0.5,1.1-1,1.5c-0.4,0.4-0.9,0.8-1.6,1c-0.6,0.2-1.3,0.4-2.1,0.4c-0.4,0-0.9,0-1.3-0.1
		c-0.4-0.1-0.8-0.2-1.2-0.4c-0.4-0.2-0.7-0.3-1.1-0.6s-0.6-0.4-0.9-0.7l0.7-1.3c0.1-0.2,0.2-0.3,0.3-0.4c0.1-0.1,0.3-0.1,0.5-0.1
		c0.2,0,0.4,0.1,0.5,0.2s0.4,0.2,0.6,0.4s0.5,0.3,0.8,0.4c0.3,0.1,0.7,0.2,1.1,0.2c0.4,0,0.7-0.1,0.9-0.2s0.5-0.2,0.6-0.4
		c0.2-0.2,0.3-0.3,0.4-0.6c0.1-0.2,0.1-0.4,0.1-0.7c0-0.3-0.1-0.6-0.3-0.8c-0.2-0.2-0.4-0.4-0.7-0.6c-0.3-0.2-0.6-0.3-1-0.4
		c-0.4-0.1-0.8-0.3-1.1-0.4c-0.4-0.2-0.8-0.3-1.1-0.5c-0.4-0.2-0.7-0.5-1-0.8c-0.3-0.3-0.5-0.7-0.7-1.1c-0.2-0.5-0.3-1-0.3-1.6
		c0-0.6,0.1-1.2,0.3-1.7s0.5-1,0.9-1.4c0.4-0.4,0.9-0.7,1.5-1s1.3-0.4,2-0.4c0.9,0,1.6,0.2,2.4,0.5s1.3,0.8,1.8,1.3L146.2,55.8z"/>
	<path class="st0" d="M156.6,55.8c-0.1,0.2-0.2,0.2-0.3,0.3s-0.2,0.1-0.3,0.1c-0.1,0-0.3,0-0.5-0.1s-0.4-0.2-0.6-0.3
		c-0.2-0.1-0.5-0.2-0.8-0.3c-0.3-0.1-0.6-0.1-1-0.1c-0.6,0-1.1,0.1-1.4,0.4s-0.5,0.7-0.5,1.1c0,0.3,0.1,0.6,0.3,0.8s0.4,0.4,0.7,0.5
		c0.3,0.2,0.6,0.3,1,0.4s0.7,0.3,1.1,0.4c0.4,0.2,0.8,0.3,1.1,0.5s0.7,0.4,1,0.7c0.3,0.3,0.5,0.7,0.7,1.1s0.3,0.9,0.3,1.5
		c0,0.7-0.1,1.3-0.3,1.9s-0.5,1.1-1,1.5c-0.4,0.4-0.9,0.8-1.6,1c-0.6,0.2-1.3,0.4-2.1,0.4c-0.4,0-0.9,0-1.3-0.1
		c-0.4-0.1-0.8-0.2-1.2-0.4c-0.4-0.2-0.7-0.3-1.1-0.6s-0.6-0.4-0.9-0.7l0.7-1.3c0.1-0.2,0.2-0.3,0.3-0.4c0.1-0.1,0.3-0.1,0.5-0.1
		c0.2,0,0.4,0.1,0.5,0.2c0.2,0.1,0.4,0.2,0.6,0.4s0.5,0.3,0.8,0.4c0.3,0.1,0.7,0.2,1.1,0.2c0.4,0,0.7-0.1,0.9-0.2s0.5-0.2,0.6-0.4
		c0.2-0.2,0.3-0.3,0.4-0.6c0.1-0.2,0.1-0.4,0.1-0.7c0-0.3-0.1-0.6-0.3-0.8c-0.2-0.2-0.4-0.4-0.7-0.6c-0.3-0.2-0.6-0.3-1-0.4
		c-0.4-0.1-0.8-0.3-1.1-0.4c-0.4-0.2-0.8-0.3-1.1-0.5c-0.4-0.2-0.7-0.5-1-0.8c-0.3-0.3-0.5-0.7-0.7-1.1c-0.2-0.5-0.3-1-0.3-1.6
		c0-0.6,0.1-1.2,0.3-1.7s0.5-1,0.9-1.4c0.4-0.4,0.9-0.7,1.5-1s1.3-0.4,2-0.4c0.9,0,1.6,0.2,2.4,0.5s1.3,0.8,1.8,1.3L156.6,55.8z"/>
	<path class="st0" d="M164.7,52.7c0.8,0,1.5,0.2,2.2,0.4c0.7,0.3,1.2,0.7,1.7,1.3c0.5,0.6,0.9,1.2,1.1,2c0.3,0.8,0.4,1.7,0.4,2.8
		c0,0.3,0,0.5,0,0.7c0,0.2-0.1,0.3-0.1,0.4s-0.1,0.2-0.2,0.2c-0.1,0-0.2,0.1-0.3,0.1h-7.7c0.1,1.5,0.4,2.6,1,3.2
		c0.6,0.7,1.4,1,2.4,1c0.5,0,0.9-0.1,1.3-0.2c0.4-0.1,0.7-0.3,0.9-0.4c0.3-0.2,0.5-0.3,0.7-0.4s0.4-0.2,0.6-0.2c0.1,0,0.2,0,0.3,0.1
		s0.2,0.1,0.2,0.2l0.9,1.3c-0.3,0.4-0.7,0.8-1.1,1.1c-0.4,0.3-0.9,0.6-1.3,0.7s-0.9,0.3-1.4,0.4c-0.5,0.1-0.9,0.1-1.4,0.1
		c-0.9,0-1.7-0.2-2.4-0.5c-0.8-0.3-1.4-0.8-1.9-1.5s-1-1.4-1.3-2.4c-0.3-1-0.5-2.1-0.5-3.3c0-1,0.1-1.9,0.4-2.8
		c0.3-0.9,0.7-1.6,1.2-2.3s1.1-1.2,1.9-1.5C162.9,52.9,163.8,52.7,164.7,52.7z M164.8,55.2c-0.9,0-1.6,0.3-2.1,0.8s-0.8,1.4-0.9,2.4
		h5.6c0-0.5-0.1-0.9-0.2-1.3s-0.3-0.7-0.5-1s-0.5-0.5-0.8-0.7C165.6,55.3,165.2,55.2,164.8,55.2z"/>
	<path class="st0" d="M186.4,50.8c-0.1,0.2-0.2,0.3-0.3,0.4s-0.3,0.1-0.4,0.1s-0.4-0.1-0.6-0.2c-0.2-0.1-0.4-0.3-0.7-0.5
		c-0.3-0.2-0.6-0.3-1-0.5s-0.8-0.2-1.3-0.2c-0.4,0-0.9,0.1-1.2,0.2c-0.3,0.1-0.6,0.3-0.9,0.5c-0.2,0.2-0.4,0.5-0.5,0.8
		c-0.1,0.3-0.2,0.7-0.2,1c0,0.5,0.1,0.9,0.4,1.2c0.2,0.3,0.5,0.6,0.9,0.8s0.8,0.4,1.3,0.6c0.5,0.2,1,0.4,1.5,0.6
		c0.5,0.2,1,0.4,1.5,0.7s0.9,0.6,1.3,1s0.7,0.9,0.9,1.5s0.4,1.3,0.4,2.1c0,0.9-0.1,1.8-0.4,2.6s-0.7,1.5-1.2,2.1
		c-0.5,0.6-1.2,1.1-1.9,1.4c-0.8,0.3-1.6,0.5-2.6,0.5c-0.6,0-1.1-0.1-1.7-0.2c-0.5-0.1-1.1-0.3-1.6-0.5c-0.5-0.2-1-0.5-1.4-0.8
		c-0.4-0.3-0.8-0.7-1.2-1.1l0.9-1.8c0.1-0.1,0.2-0.2,0.3-0.3c0.1-0.1,0.3-0.1,0.4-0.1c0.2,0,0.4,0.1,0.7,0.3
		c0.2,0.2,0.5,0.4,0.8,0.6c0.3,0.2,0.7,0.4,1.1,0.6c0.4,0.2,1,0.3,1.6,0.3c0.9,0,1.7-0.2,2.2-0.8s0.8-1.2,0.8-2.2
		c0-0.5-0.1-1-0.4-1.3c-0.2-0.3-0.5-0.6-0.9-0.8s-0.8-0.4-1.3-0.6c-0.5-0.2-1-0.3-1.5-0.5c-0.5-0.2-1-0.4-1.5-0.7s-0.9-0.6-1.3-1
		c-0.4-0.4-0.7-1-0.9-1.6s-0.4-1.4-0.4-2.3c0-0.7,0.1-1.5,0.4-2.2c0.3-0.7,0.6-1.3,1.1-1.9c0.5-0.5,1.1-1,1.8-1.3
		c0.7-0.3,1.5-0.5,2.4-0.5c1,0,2,0.2,2.9,0.6c0.9,0.4,1.6,0.9,2.2,1.6L186.4,50.8z"/>
	<path class="st0" d="M194.8,52.7c0.8,0,1.5,0.2,2.2,0.4c0.7,0.3,1.2,0.7,1.7,1.3c0.5,0.6,0.9,1.2,1.1,2c0.3,0.8,0.4,1.7,0.4,2.8
		c0,0.3,0,0.5,0,0.7c0,0.2-0.1,0.3-0.1,0.4s-0.1,0.2-0.2,0.2c-0.1,0-0.2,0.1-0.3,0.1h-7.7c0.1,1.5,0.4,2.6,1,3.2
		c0.6,0.7,1.4,1,2.4,1c0.5,0,0.9-0.1,1.3-0.2c0.4-0.1,0.7-0.3,0.9-0.4c0.3-0.2,0.5-0.3,0.7-0.4s0.4-0.2,0.6-0.2c0.1,0,0.2,0,0.3,0.1
		s0.2,0.1,0.2,0.2l0.9,1.3c-0.3,0.4-0.7,0.8-1.1,1.1c-0.4,0.3-0.9,0.6-1.3,0.7s-0.9,0.3-1.4,0.4c-0.5,0.1-0.9,0.1-1.4,0.1
		c-0.9,0-1.7-0.2-2.4-0.5c-0.8-0.3-1.4-0.8-1.9-1.5s-1-1.4-1.3-2.4c-0.3-1-0.5-2.1-0.5-3.3c0-1,0.1-1.9,0.4-2.8
		c0.3-0.9,0.7-1.6,1.2-2.3s1.1-1.2,1.9-1.5C193,52.9,193.8,52.7,194.8,52.7z M194.8,55.2c-0.9,0-1.6,0.3-2.1,0.8s-0.8,1.4-0.9,2.4
		h5.6c0-0.5-0.1-0.9-0.2-1.3s-0.3-0.7-0.5-1s-0.5-0.5-0.8-0.7C195.6,55.3,195.3,55.2,194.8,55.2z"/>
	<path class="st0" d="M202.4,67.3V53h1.8c0.3,0,0.5,0.1,0.6,0.2c0.1,0.1,0.2,0.4,0.2,0.7l0.2,1.7c0.4-0.9,1-1.6,1.6-2.1
		s1.3-0.8,2-0.8c0.6,0,1.1,0.2,1.5,0.5l-0.4,2.6c0,0.2-0.1,0.3-0.2,0.4s-0.2,0.1-0.3,0.1c-0.1,0-0.3,0-0.5-0.1s-0.5-0.1-0.8-0.1
		c-0.6,0-1.2,0.2-1.6,0.6c-0.4,0.4-0.8,1-1.1,1.7v8.9L202.4,67.3L202.4,67.3z"/>
	<path class="st0" d="M218.3,67.3h-2.7l-5-14.4h2.5c0.2,0,0.4,0.1,0.6,0.2c0.1,0.1,0.2,0.3,0.3,0.5l2.4,7.7c0.1,0.5,0.2,0.9,0.4,1.3
		c0.1,0.4,0.2,0.9,0.2,1.3c0.1-0.4,0.2-0.9,0.2-1.3s0.2-0.9,0.4-1.3l2.5-7.7c0.1-0.2,0.2-0.3,0.3-0.5c0.1-0.1,0.3-0.2,0.5-0.2h2.4
		L218.3,67.3z"/>
	<path class="st0" d="M228.5,48.8c0,0.3-0.1,0.6-0.2,0.8s-0.2,0.5-0.4,0.7c-0.2,0.2-0.4,0.3-0.6,0.5c-0.2,0.1-0.5,0.2-0.8,0.2
		s-0.5-0.1-0.7-0.2c-0.2-0.1-0.4-0.3-0.6-0.5c-0.2-0.2-0.3-0.4-0.4-0.7c-0.1-0.3-0.1-0.5-0.1-0.8c0-0.3,0.1-0.6,0.1-0.9
		c0.1-0.3,0.2-0.5,0.4-0.7s0.4-0.3,0.6-0.5c0.2-0.1,0.5-0.2,0.7-0.2c0.3,0,0.5,0.1,0.8,0.2c0.2,0.1,0.4,0.3,0.6,0.5s0.3,0.4,0.4,0.7
		C228.4,48.2,228.5,48.5,228.5,48.8z M228,53v14.4h-3V53H228z"/>
	<path class="st0" d="M239.9,56c-0.1,0.1-0.2,0.2-0.3,0.3c-0.1,0.1-0.2,0.1-0.4,0.1c-0.1,0-0.3,0-0.4-0.2s-0.3-0.2-0.5-0.4
		c-0.2-0.1-0.4-0.3-0.7-0.4c-0.3-0.1-0.6-0.2-1-0.2c-0.5,0-1,0.1-1.4,0.3s-0.7,0.5-1,1c-0.3,0.4-0.5,0.9-0.6,1.5
		c-0.1,0.6-0.2,1.2-0.2,2c0,0.8,0.1,1.5,0.2,2s0.4,1.1,0.6,1.5c0.3,0.4,0.6,0.7,1,0.9s0.8,0.3,1.3,0.3s0.9-0.1,1.2-0.2
		c0.3-0.1,0.6-0.3,0.8-0.4c0.2-0.2,0.4-0.3,0.5-0.5s0.3-0.2,0.5-0.2c0.2,0,0.4,0.1,0.6,0.3l0.9,1.3c-0.3,0.4-0.7,0.8-1.1,1.1
		c-0.4,0.3-0.8,0.6-1.2,0.7c-0.4,0.2-0.9,0.3-1.3,0.4c-0.4,0.1-0.9,0.1-1.3,0.1c-0.8,0-1.5-0.2-2.2-0.5s-1.3-0.8-1.8-1.4
		c-0.5-0.6-0.9-1.4-1.2-2.3s-0.4-2-0.4-3.2c0-1.1,0.1-2,0.4-2.9c0.3-0.9,0.6-1.7,1.2-2.3c0.5-0.7,1.1-1.2,1.9-1.5
		c0.8-0.4,1.6-0.6,2.6-0.6c0.9,0,1.8,0.2,2.4,0.5c0.7,0.3,1.3,0.8,1.9,1.5L239.9,56z"/>
	<path class="st0" d="M247.7,52.7c0.8,0,1.5,0.2,2.2,0.4c0.7,0.3,1.2,0.7,1.7,1.3c0.5,0.6,0.9,1.2,1.1,2c0.3,0.8,0.4,1.7,0.4,2.8
		c0,0.3,0,0.5,0,0.7c0,0.2-0.1,0.3-0.1,0.4s-0.1,0.2-0.2,0.2c-0.1,0-0.2,0.1-0.3,0.1h-7.7c0.1,1.5,0.4,2.6,1,3.2
		c0.6,0.7,1.4,1,2.4,1c0.5,0,0.9-0.1,1.3-0.2c0.4-0.1,0.7-0.3,0.9-0.4c0.3-0.2,0.5-0.3,0.7-0.4s0.4-0.2,0.6-0.2c0.1,0,0.2,0,0.3,0.1
		s0.2,0.1,0.2,0.2l0.9,1.3c-0.3,0.4-0.7,0.8-1.1,1.1c-0.4,0.3-0.9,0.6-1.3,0.7s-0.9,0.3-1.4,0.4c-0.5,0.1-0.9,0.1-1.4,0.1
		c-0.9,0-1.7-0.2-2.4-0.5c-0.8-0.3-1.4-0.8-1.9-1.5s-1-1.4-1.3-2.4c-0.3-1-0.5-2.1-0.5-3.3c0-1,0.1-1.9,0.4-2.8
		c0.3-0.9,0.7-1.6,1.2-2.3s1.1-1.2,1.9-1.5C245.9,52.9,246.8,52.7,247.7,52.7z M247.8,55.2c-0.9,0-1.6,0.3-2.1,0.8s-0.8,1.4-0.9,2.4
		h5.6c0-0.5-0.1-0.9-0.2-1.3s-0.3-0.7-0.5-1s-0.5-0.5-0.8-0.7C248.6,55.3,248.2,55.2,247.8,55.2z"/>
</g>
<g>
	<path class="st0" d="M447.5,62.3v2.8h-5.7v-7.7c0-0.5-0.1-1-0.3-1.4s-0.5-0.8-0.8-1.2c-0.3-0.3-0.7-0.6-1.2-0.8
		c-0.5-0.2-0.9-0.3-1.4-0.3c-0.5,0-1,0.1-1.4,0.3c-0.5,0.2-0.8,0.5-1.2,0.8c-0.3,0.3-0.6,0.7-0.8,1.2s-0.3,1-0.3,1.5v3.1
		c0,0.2,0,0.5,0.1,0.7c0.1,0.2,0.2,0.4,0.4,0.5s0.3,0.3,0.6,0.4c0.2,0.1,0.4,0.1,0.7,0.1h3.1v2.8h-3.1c-0.6,0-1.2-0.1-1.8-0.3
		c-0.5-0.2-1-0.6-1.5-1c-0.4-0.4-0.7-0.9-1-1.4c-0.2-0.5-0.4-1.1-0.4-1.8v-3.1c0-0.9,0.2-1.8,0.5-2.5c0.3-0.8,0.8-1.5,1.4-2.1
		c0.6-0.6,1.3-1.1,2.1-1.4c0.8-0.3,1.6-0.5,2.5-0.5c0.9,0,1.7,0.2,2.5,0.5c0.8,0.3,1.5,0.8,2.1,1.4s1.1,1.3,1.4,2.1
		c0.3,0.8,0.5,1.6,0.5,2.5v4.9C444.6,62.3,447.5,62.3,447.5,62.3z M434.7,46.9c0-0.2,0-0.4,0.1-0.5c0.1-0.2,0.2-0.3,0.3-0.5
		s0.3-0.2,0.5-0.3s0.4-0.1,0.6-0.1s0.4,0,0.5,0.1s0.3,0.2,0.5,0.3s0.2,0.3,0.3,0.5c0.1,0.2,0.1,0.3,0.1,0.5c0,0.2,0,0.4-0.1,0.5
		c-0.1,0.2-0.2,0.3-0.3,0.5s-0.3,0.2-0.5,0.3c-0.2,0.1-0.4,0.1-0.5,0.1c-0.2,0-0.4,0-0.6-0.1c-0.2-0.1-0.3-0.2-0.5-0.3
		s-0.2-0.3-0.3-0.5C434.7,47.2,434.7,47.1,434.7,46.9z M438.9,46.9c0-0.2,0-0.4,0.1-0.5c0.1-0.2,0.2-0.3,0.3-0.5s0.3-0.2,0.5-0.3
		s0.4-0.1,0.6-0.1s0.4,0,0.5,0.1s0.3,0.2,0.5,0.3s0.2,0.3,0.3,0.5c0.1,0.2,0.1,0.3,0.1,0.5c0,0.4-0.1,0.7-0.4,1
		c-0.3,0.3-0.6,0.4-1,0.4c-0.2,0-0.4,0-0.6-0.1c-0.2-0.1-0.3-0.2-0.5-0.3c-0.1-0.1-0.2-0.3-0.3-0.5
		C438.9,47.2,438.9,47.1,438.9,46.9z"/>
	<path class="st0" d="M453.9,50.9v9.6c0,0.6-0.1,1.2-0.4,1.8s-0.6,1-1,1.4c-0.4,0.4-0.9,0.7-1.5,1s-1.1,0.4-1.8,0.4h-3v-2.8h3
		c0.2,0,0.5,0,0.7-0.1s0.4-0.2,0.6-0.4s0.3-0.3,0.4-0.6c0.1-0.2,0.1-0.5,0.1-0.7V51L453.9,50.9L453.9,50.9z M446.8,69.2
		c0-0.2,0-0.4,0.1-0.6c0.1-0.2,0.2-0.3,0.3-0.4s0.3-0.2,0.5-0.3c0.2-0.1,0.4-0.1,0.5-0.1c0.2,0,0.4,0,0.6,0.1
		c0.2,0.1,0.3,0.2,0.5,0.3c0.1,0.1,0.2,0.3,0.3,0.4s0.1,0.3,0.1,0.6c0,0.2,0,0.4-0.1,0.6c-0.1,0.2-0.2,0.3-0.3,0.4s-0.3,0.2-0.5,0.3
		c-0.2,0.1-0.4,0.1-0.6,0.1s-0.4,0-0.5-0.1c-0.2-0.1-0.3-0.2-0.5-0.3c-0.1-0.1-0.2-0.3-0.3-0.4C446.8,69.6,446.8,69.4,446.8,69.2z
		 M451,69.2c0-0.2,0-0.4,0.1-0.6c0.1-0.2,0.2-0.3,0.3-0.4s0.3-0.2,0.5-0.3c0.2-0.1,0.4-0.1,0.6-0.1s0.4,0,0.6,0.1
		c0.2,0.1,0.3,0.2,0.5,0.3s0.2,0.3,0.3,0.4c0.1,0.2,0.1,0.3,0.1,0.6c0,0.4-0.1,0.7-0.4,1s-0.6,0.4-1,0.4c-0.2,0-0.4,0-0.6-0.1
		c-0.2-0.1-0.3-0.2-0.5-0.3c-0.1-0.1-0.2-0.3-0.3-0.4C451,69.6,451,69.4,451,69.2z"/>
	<path class="st0" d="M462.2,50.9v11.4h2.9v2.8h-3c-0.1,0.4-0.2,0.8-0.4,1.3c-0.2,0.5-0.5,1-0.9,1.5c-0.4,0.5-0.9,1-1.6,1.5
		c-0.6,0.5-1.5,0.9-2.4,1.3l-1.1-2.6c0.5-0.2,0.9-0.4,1.3-0.7c0.4-0.2,0.7-0.5,1-0.7s0.5-0.5,0.7-0.7c0.2-0.2,0.3-0.5,0.4-0.7
		c0.3-0.5,0.4-1.1,0.4-1.6V50.9H462.2z"/>
	<path class="st0" d="M471.5,50.9v9.6c0,0.6-0.1,1.2-0.4,1.8s-0.6,1-1,1.4s-0.9,0.7-1.5,1s-1.1,0.4-1.8,0.4h-3v-2.8h3
		c0.2,0,0.5,0,0.7-0.1s0.4-0.2,0.6-0.4c0.2-0.2,0.3-0.3,0.4-0.6c0.1-0.2,0.1-0.5,0.1-0.7V51L471.5,50.9L471.5,50.9z M471.6,45.3
		h-1.2h0c-0.3,0-0.6,0.1-0.7,0.3c-0.1,0.2-0.2,0.4-0.2,0.6c0,0.1,0,0.3,0,0.4c0,0.1,0.1,0.3,0.1,0.4s0.1,0.2,0.2,0.3
		s0.1,0.1,0.2,0.1h2.1v1.4h-4.6v-1.4h0.7c-0.2-0.4-0.2-0.8-0.2-1.2c0-0.3,0-0.6,0.1-0.8s0.2-0.5,0.4-0.7c0.2-0.2,0.4-0.4,0.7-0.5
		s0.7-0.2,1.1-0.2h1.2L471.6,45.3L471.6,45.3z"/>
	<path class="st0" d="M478,45.4v19.7h-2.8V45.4H478z"/>
	<path class="st0" d="M486.4,50.9v11.4h2.9v2.8h-3c-0.1,0.4-0.2,0.8-0.4,1.3c-0.2,0.5-0.5,1-0.9,1.5c-0.4,0.5-0.9,1-1.6,1.5
		c-0.6,0.5-1.5,0.9-2.4,1.3l-1.1-2.6c0.5-0.2,0.9-0.4,1.3-0.7c0.4-0.2,0.7-0.5,1-0.7s0.5-0.5,0.7-0.7c0.2-0.2,0.3-0.5,0.4-0.7
		c0.3-0.5,0.4-1.1,0.4-1.6V50.9H486.4z M483.6,46.9c0-0.2,0-0.4,0.1-0.5c0.1-0.2,0.2-0.3,0.3-0.5c0.1-0.1,0.3-0.2,0.5-0.3
		c0.2-0.1,0.4-0.1,0.5-0.1c0.2,0,0.4,0,0.6,0.1c0.2,0.1,0.3,0.2,0.5,0.3c0.1,0.1,0.2,0.3,0.3,0.5c0.1,0.2,0.1,0.3,0.1,0.5
		c0,0.2,0,0.4-0.1,0.5c-0.1,0.2-0.2,0.3-0.3,0.5s-0.3,0.2-0.5,0.3c-0.2,0.1-0.4,0.1-0.6,0.1c-0.4,0-0.7-0.1-1-0.4
		C483.7,47.6,483.6,47.3,483.6,46.9z"/>
	<path class="st0" d="M490.7,52.3c0.3-0.1,0.6-0.3,1-0.4s0.9-0.3,1.4-0.5c0.5-0.2,1.1-0.3,1.7-0.4c0.6-0.1,1.1-0.2,1.7-0.2
		c0.8,0,1.6,0.1,2.4,0.3c0.8,0.2,1.5,0.5,2.1,1s1.1,1.2,1.5,2c0.4,0.8,0.6,1.9,0.6,3.2v4.8h2.9v2.8H488v-2.8h12.2v-4.8
		c0-0.8-0.1-1.4-0.3-1.9c-0.2-0.5-0.5-0.9-0.8-1.2c-0.3-0.3-0.7-0.5-1.2-0.6c-0.4-0.1-0.9-0.2-1.4-0.2c-0.4,0-0.9,0-1.3,0.1
		c-0.5,0.1-0.9,0.2-1.3,0.3c-0.4,0.1-0.8,0.2-1.1,0.4c-0.4,0.1-0.6,0.2-0.9,0.3L490.7,52.3z M495.2,69.2c0-0.2,0-0.4,0.1-0.6
		c0.1-0.2,0.2-0.3,0.3-0.4s0.3-0.2,0.5-0.3c0.2-0.1,0.4-0.1,0.5-0.1c0.4,0,0.7,0.1,1,0.4c0.3,0.3,0.4,0.6,0.4,1c0,0.2,0,0.4-0.1,0.6
		c-0.1,0.2-0.2,0.3-0.3,0.4c-0.1,0.1-0.3,0.2-0.5,0.3c-0.2,0.1-0.4,0.1-0.5,0.1c-0.2,0-0.4,0-0.5-0.1c-0.2-0.1-0.3-0.2-0.5-0.3
		s-0.2-0.3-0.3-0.4C495.2,69.5,495.2,69.4,495.2,69.2z"/>
	<path class="st0" d="M510.6,45.4v15.1c0,0.6-0.1,1.2-0.4,1.8s-0.6,1-1,1.4c-0.4,0.4-0.9,0.7-1.5,1c-0.6,0.2-1.2,0.4-1.8,0.4h-1.3
		v-2.8h1.3c0.2,0,0.5,0,0.7-0.1s0.4-0.2,0.6-0.4s0.3-0.3,0.4-0.6c0.1-0.2,0.1-0.4,0.1-0.7V45.4H510.6z"/>
	<path class="st0" d="M516.5,45.4v19.7h-2.8V45.4H516.5z"/>
	<path class="st0" d="M535.7,54.6h-2.9c-0.6,0-1.1,0.2-1.5,0.4c-0.4,0.2-0.8,0.5-1.1,0.8c-0.3,0.3-0.5,0.7-0.6,1.1s-0.2,0.8-0.2,1.2
		c0,0.5,0.1,1,0.2,1.5s0.3,1,0.5,1.3s0.5,0.7,0.8,1c0.3,0.2,0.6,0.4,0.9,0.4h6.6v2.8h-13.9v-2.8h3.2c-0.3-0.6-0.6-1.3-0.8-2
		s-0.3-1.5-0.3-2.2c0-0.8,0.1-1.5,0.3-2.3c0.2-0.7,0.6-1.4,1.1-2c0.5-0.6,1.1-1,1.9-1.4s1.8-0.5,2.9-0.6h3L535.7,54.6L535.7,54.6z"
		/>
	<path class="st0" d="M544.2,45.4v15.1c0,0.2,0,0.5,0.1,0.7c0.1,0.2,0.2,0.4,0.4,0.6c0.2,0.2,0.3,0.3,0.6,0.4
		c0.2,0.1,0.5,0.1,0.7,0.1h1.3v2.8H546c-0.6,0-1.2-0.1-1.8-0.4c-0.6-0.2-1-0.6-1.5-1c-0.4-0.4-0.8-0.9-1-1.4s-0.4-1.1-0.4-1.8V45.4
		H544.2z"/>
	<path class="st0" d="M553.7,50.9v11.4h2.9v2.8h-10.5v-2.8h4.8V50.9C550.9,50.9,553.7,50.9,553.7,50.9z M549.8,69.2
		c0-0.2,0-0.4,0.1-0.6c0.1-0.2,0.2-0.3,0.3-0.4s0.3-0.2,0.5-0.3c0.2-0.1,0.4-0.1,0.6-0.1c0.4,0,0.7,0.1,1,0.4c0.3,0.3,0.4,0.6,0.4,1
		c0,0.2,0,0.4-0.1,0.6c-0.1,0.2-0.2,0.3-0.3,0.4c-0.1,0.1-0.3,0.2-0.5,0.3s-0.4,0.1-0.5,0.1c-0.2,0-0.4,0-0.6-0.1
		c-0.2-0.1-0.3-0.2-0.5-0.3c-0.1-0.1-0.2-0.3-0.3-0.4C549.8,69.5,549.8,69.4,549.8,69.2z"/>
	<path class="st0" d="M562.9,50.9v9.6c0,0.6-0.1,1.2-0.4,1.8s-0.6,1-1,1.4s-0.9,0.7-1.5,1s-1.2,0.4-1.8,0.4h-3v-2.8h3
		c0.2,0,0.5,0,0.7-0.1c0.2-0.1,0.4-0.2,0.6-0.4c0.2-0.2,0.3-0.3,0.4-0.6c0.1-0.2,0.1-0.5,0.1-0.7V51L562.9,50.9L562.9,50.9z
		 M560,46.9c0-0.2,0-0.4,0.1-0.5c0.1-0.2,0.2-0.3,0.3-0.5s0.3-0.2,0.5-0.3c0.2-0.1,0.4-0.1,0.6-0.1s0.4,0,0.6,0.1
		c0.2,0.1,0.3,0.2,0.5,0.3s0.2,0.3,0.3,0.5c0.1,0.2,0.1,0.3,0.1,0.5c0,0.4-0.1,0.7-0.4,1c-0.3,0.3-0.6,0.4-1,0.4
		c-0.2,0-0.4,0-0.6-0.1s-0.3-0.2-0.5-0.3s-0.2-0.3-0.3-0.5C560.1,47.2,560,47.1,560,46.9z"/>
	<path class="st0" d="M571.5,50.9v11.4h4.4c0.2,0,0.5,0,0.7-0.1c0.2-0.1,0.4-0.2,0.6-0.4c0.2-0.2,0.3-0.3,0.4-0.6
		c0.1-0.2,0.1-0.5,0.1-0.7V45.4h2.8v15.1c0,0.6-0.1,1.2-0.4,1.8s-0.6,1-1,1.4c-0.4,0.4-0.9,0.7-1.5,1s-1.2,0.4-1.8,0.4H566v-2.8h2.7
		V50.9C568.7,50.9,571.5,50.9,571.5,50.9z M571.7,46h-1.2h0c-0.3,0-0.6,0.1-0.7,0.3c-0.2,0.2-0.2,0.4-0.2,0.6c0,0.2,0,0.3,0,0.4
		s0.1,0.3,0.1,0.4s0.1,0.2,0.2,0.3c0.1,0.1,0.2,0.1,0.2,0.1h2.1v1.4h-4.6v-1.4h0.7c-0.2-0.4-0.2-0.8-0.2-1.2c0-0.3,0-0.6,0.1-0.8
		c0.1-0.3,0.2-0.5,0.4-0.7c0.2-0.2,0.4-0.4,0.7-0.5s0.7-0.2,1.1-0.2h1.2L571.7,46L571.7,46z"/>
	<path class="st0" d="M586.4,45.4v19.7h-2.8V45.4H586.4z"/>
	<path class="st0" d="M610.1,62.3v2.8h-5.7v-7.7c0-0.5-0.1-1-0.3-1.4s-0.5-0.8-0.8-1.2c-0.3-0.3-0.7-0.6-1.2-0.8
		c-0.5-0.2-0.9-0.3-1.4-0.3s-1,0.1-1.4,0.3c-0.5,0.2-0.8,0.5-1.2,0.8c-0.3,0.3-0.6,0.7-0.8,1.2s-0.3,1-0.3,1.5v3.1
		c0,0.2,0,0.5,0.1,0.7s0.2,0.4,0.4,0.5c0.2,0.2,0.3,0.3,0.6,0.4c0.2,0.1,0.4,0.1,0.7,0.1h3.1v2.8h-3.1c-0.6,0-1.2-0.1-1.8-0.3
		c-0.5-0.2-1-0.6-1.5-1c-0.4-0.4-0.7-0.9-1-1.4s-0.4-1.1-0.4-1.8v-3.1c0-0.9,0.2-1.8,0.5-2.5c0.3-0.8,0.8-1.5,1.4-2.1
		s1.3-1.1,2.1-1.4c0.8-0.3,1.6-0.5,2.5-0.5s1.7,0.2,2.5,0.5c0.8,0.3,1.5,0.8,2.1,1.4s1.1,1.3,1.4,2.1c0.3,0.8,0.5,1.6,0.5,2.5v4.9
		C607.2,62.3,610.1,62.3,610.1,62.3z M597.3,46.9c0-0.2,0-0.4,0.1-0.5s0.2-0.3,0.3-0.5s0.3-0.2,0.5-0.3s0.4-0.1,0.6-0.1
		s0.4,0,0.5,0.1s0.3,0.2,0.5,0.3s0.2,0.3,0.3,0.5c0.1,0.2,0.1,0.3,0.1,0.5c0,0.2,0,0.4-0.1,0.5s-0.2,0.3-0.3,0.5s-0.3,0.2-0.5,0.3
		c-0.2,0.1-0.4,0.1-0.5,0.1c-0.2,0-0.4,0-0.6-0.1c-0.2-0.1-0.3-0.2-0.5-0.3s-0.2-0.3-0.3-0.5C597.3,47.2,597.3,47.1,597.3,46.9z
		 M601.5,46.9c0-0.2,0-0.4,0.1-0.5s0.2-0.3,0.3-0.5s0.3-0.2,0.5-0.3s0.4-0.1,0.6-0.1s0.4,0,0.5,0.1s0.3,0.2,0.5,0.3s0.2,0.3,0.3,0.5
		c0.1,0.2,0.1,0.3,0.1,0.5c0,0.4-0.1,0.7-0.4,1c-0.3,0.3-0.6,0.4-1,0.4c-0.2,0-0.4,0-0.6-0.1c-0.2-0.1-0.3-0.2-0.5-0.3
		c-0.1-0.1-0.2-0.3-0.3-0.5C601.5,47.2,601.5,47.1,601.5,46.9z"/>
	<path class="st0" d="M614.8,45.4v15.1c0,0.6-0.1,1.2-0.4,1.8s-0.6,1-1,1.4c-0.4,0.4-0.9,0.7-1.5,1c-0.6,0.2-1.2,0.4-1.8,0.4h-1.3
		v-2.8h1.3c0.2,0,0.5,0,0.7-0.1c0.2-0.1,0.4-0.2,0.6-0.4c0.2-0.2,0.3-0.3,0.4-0.6c0.1-0.2,0.1-0.4,0.1-0.7V45.4H614.8z"/>
	<path class="st0" d="M620.7,45.4v15.1c0,0.2,0,0.5,0.1,0.7c0.1,0.2,0.2,0.4,0.4,0.6c0.2,0.2,0.3,0.3,0.6,0.4
		c0.2,0.1,0.5,0.1,0.7,0.1h1.3v2.8h-1.3c-0.6,0-1.2-0.1-1.8-0.4c-0.6-0.2-1-0.6-1.5-1c-0.4-0.4-0.8-0.9-1-1.4s-0.4-1.1-0.4-1.8V45.4
		H620.7z"/>
	<path class="st0" d="M635.2,47.2l-4.3,3.8c0.2,0,0.5,0,0.7,0c0.2,0,0.5,0,0.7,0c0.7,0,1.3,0,2,0.1c0.7,0.1,1.3,0.2,1.9,0.4
		c0.6,0.2,1.1,0.5,1.7,0.8s1,0.7,1.3,1.2s0.7,1.1,0.9,1.7s0.3,1.4,0.3,2.3v3.1c0,0.6-0.1,1.2-0.4,1.8s-0.6,1-1,1.4
		c-0.4,0.4-0.9,0.7-1.5,1c-0.6,0.2-1.2,0.3-1.8,0.3h-13v-2.8h13c0.3,0,0.5,0,0.7-0.1s0.4-0.2,0.6-0.4c0.2-0.2,0.3-0.3,0.4-0.5
		c0.1-0.2,0.1-0.4,0.1-0.7v-3.1c0-0.8-0.2-1.4-0.5-1.9s-0.7-0.9-1.2-1.2c-0.5-0.3-1-0.5-1.7-0.6s-1.2-0.2-1.9-0.2
		c-0.6,0-1.2,0-1.8,0.1c-0.6,0.1-1.1,0.2-1.6,0.3c-0.5,0.1-1,0.2-1.4,0.4s-0.7,0.2-0.9,0.3l-1.3-2.3l7.9-7.3L635.2,47.2z"/>
	<path class="st0" d="M645.4,67.8h4.4c0.4,0,0.8-0.1,1.2-0.2c0.4-0.1,0.7-0.3,1-0.6s0.6-0.5,0.8-0.9s0.4-0.7,0.5-1.1h-5.5
		c-0.6,0-1.2-0.1-1.8-0.3c-0.5-0.2-1-0.6-1.5-1c-0.4-0.4-0.7-0.9-1-1.4c-0.2-0.5-0.4-1.1-0.4-1.8v-3.1c0-0.9,0.2-1.8,0.5-2.5
		c0.3-0.8,0.8-1.5,1.4-2.1s1.3-1.1,2.1-1.4c0.8-0.3,1.6-0.5,2.5-0.5c0.6,0,1.2,0.1,1.7,0.2s1.1,0.4,1.5,0.7c0.5,0.3,0.9,0.6,1.3,1
		s0.7,0.8,1,1.3c0.3,0.5,0.5,1,0.7,1.5c0.2,0.5,0.2,1.1,0.2,1.7v6.8c0,0.9-0.2,1.7-0.5,2.5s-0.8,1.5-1.4,2s-1.3,1-2.1,1.4
		c-0.8,0.3-1.6,0.5-2.5,0.5h-4.4L645.4,67.8L645.4,67.8z M653.4,62.3v-4.9c0-0.5-0.1-1-0.3-1.4c-0.2-0.5-0.5-0.8-0.8-1.2
		c-0.3-0.3-0.7-0.6-1.2-0.8s-0.9-0.3-1.4-0.3s-1,0.1-1.4,0.3c-0.4,0.2-0.8,0.5-1.2,0.8c-0.3,0.3-0.6,0.7-0.8,1.2
		c-0.2,0.5-0.3,1-0.3,1.5v3.1c0,0.2,0,0.5,0.1,0.7c0.1,0.2,0.2,0.4,0.4,0.5c0.2,0.2,0.3,0.3,0.6,0.4c0.2,0.1,0.4,0.1,0.7,0.1
		L653.4,62.3L653.4,62.3z"/>
</g>
<rect x="448.5" y="88.7" class="st0" width="207.8" height="2.3"/>
<rect x="18.8" y="88.7" class="st0" width="224.8" height="2.3"/>
<g>
	<path class="st0" d="M466.8,117.1v15h3.8v5.2h-4c-0.2,1.2-0.7,2.3-1.3,3.2c-0.7,0.9-1.4,1.7-2.4,2.3c-0.9,0.6-1.9,1-3,1.3
		c-1.1,0.3-2.2,0.4-3.4,0.4c-1.3,0-2.6-0.2-3.8-0.6c-1.2-0.4-2.3-1-3.3-1.7s-1.7-1.7-2.3-2.9c-0.6-1.2-0.9-2.5-0.9-4.1v-14.7h5.2
		v14.7c0,0.7,0.1,1.3,0.4,1.8s0.7,0.9,1.2,1.3s1,0.6,1.7,0.8c0.6,0.2,1.2,0.3,1.9,0.3c0.6,0,1.3-0.1,1.9-0.3
		c0.6-0.2,1.2-0.4,1.6-0.8s0.9-0.8,1.2-1.3c0.3-0.5,0.4-1.1,0.4-1.8v-18.1H466.8z M453.8,112.5c0-0.4,0.1-0.7,0.2-1
		c0.1-0.3,0.3-0.6,0.6-0.8s0.5-0.4,0.8-0.6c0.3-0.1,0.7-0.2,1-0.2c0.4,0,0.7,0.1,1,0.2c0.3,0.1,0.6,0.3,0.8,0.6
		c0.2,0.2,0.4,0.5,0.6,0.8c0.1,0.3,0.2,0.7,0.2,1c0,0.4-0.1,0.7-0.2,1c-0.1,0.3-0.3,0.6-0.6,0.8c-0.2,0.2-0.5,0.4-0.8,0.6
		c-0.3,0.1-0.7,0.2-1,0.2c-0.4,0-0.7-0.1-1-0.2c-0.3-0.1-0.6-0.3-0.8-0.6s-0.4-0.5-0.6-0.8C453.9,113.2,453.8,112.8,453.8,112.5z"/>
	<path class="st0" d="M468.8,141.8c0-0.4,0.1-0.7,0.2-1c0.1-0.3,0.3-0.6,0.6-0.8s0.5-0.4,0.8-0.6c0.3-0.1,0.7-0.2,1-0.2
		c0.4,0,0.7,0.1,1,0.2s0.6,0.3,0.8,0.6s0.4,0.5,0.6,0.8c0.1,0.3,0.2,0.7,0.2,1s-0.1,0.7-0.2,1c-0.1,0.3-0.3,0.6-0.6,0.8
		s-0.5,0.4-0.8,0.6c-0.3,0.1-0.7,0.2-1,0.2c-0.4,0-0.7-0.1-1-0.2c-0.3-0.1-0.6-0.3-0.8-0.6s-0.4-0.5-0.6-0.8
		C468.9,142.5,468.8,142.2,468.8,141.8z M480.3,117.1v13.4c0,0.9-0.2,1.8-0.5,2.6c-0.4,0.8-0.8,1.5-1.5,2.1s-1.3,1.1-2.1,1.4
		c-0.8,0.4-1.7,0.5-2.6,0.5h-4.7V132h4.7c0.4,0,0.8-0.2,1.1-0.5c0.3-0.3,0.5-0.7,0.5-1.1v-13.4H480.3z M475.1,141.8
		c0-0.4,0.1-0.7,0.2-1c0.1-0.3,0.3-0.6,0.6-0.8c0.2-0.2,0.5-0.4,0.8-0.6s0.7-0.2,1-0.2c0.4,0,0.7,0.1,1,0.2s0.6,0.3,0.8,0.6
		s0.4,0.5,0.6,0.8c0.1,0.3,0.2,0.7,0.2,1s-0.1,0.7-0.2,1c-0.1,0.3-0.3,0.6-0.6,0.8s-0.5,0.4-0.8,0.6c-0.3,0.1-0.7,0.2-1,0.2
		c-0.4,0-0.7-0.1-1-0.2c-0.3-0.1-0.6-0.3-0.8-0.6c-0.2-0.2-0.4-0.5-0.6-0.8C475.1,142.5,475.1,142.2,475.1,141.8z"/>
	<path class="st0" d="M493.2,117.1v15h6.5v-22.2h5.2V132h3.8v5.2h-24V132h3.5v-15H493.2z"/>
	<path class="st0" d="M518.3,117.1v13.4c0,0.9-0.2,1.8-0.5,2.6c-0.4,0.8-0.8,1.5-1.4,2.1c-0.6,0.6-1.3,1.1-2.1,1.4
		c-0.8,0.4-1.7,0.5-2.6,0.5h-4.7V132h4.7c0.4,0,0.8-0.2,1.1-0.5c0.3-0.3,0.5-0.7,0.5-1.1v-13.4H518.3z M513.1,112.5
		c0-0.4,0.1-0.7,0.2-1c0.1-0.3,0.3-0.6,0.6-0.8s0.5-0.4,0.8-0.6c0.3-0.1,0.7-0.2,1-0.2s0.7,0.1,1,0.2c0.3,0.1,0.6,0.3,0.8,0.6
		c0.2,0.2,0.4,0.5,0.6,0.8c0.1,0.3,0.2,0.7,0.2,1c0,0.4-0.1,0.7-0.2,1c-0.1,0.3-0.3,0.6-0.6,0.8c-0.2,0.2-0.5,0.4-0.8,0.6
		c-0.3,0.1-0.7,0.2-1,0.2s-0.7-0.1-1-0.2c-0.3-0.1-0.6-0.3-0.8-0.6s-0.4-0.5-0.6-0.8C513.2,113.2,513.1,112.8,513.1,112.5z"/>
	<path class="st0" d="M525.3,139.3h6.5c0.8,0,1.5-0.2,2.1-0.5c0.6-0.4,1.1-0.9,1.4-1.5h-6c-0.9,0-1.8-0.2-2.6-0.5
		c-0.8-0.4-1.5-0.8-2.1-1.4c-0.6-0.6-1.1-1.3-1.4-2.1c-0.4-0.8-0.5-1.7-0.5-2.6v-4.1c0-1.3,0.2-2.5,0.7-3.7c0.5-1.1,1.1-2.1,2-3
		c0.8-0.9,1.8-1.5,2.9-2c1.1-0.5,2.3-0.7,3.6-0.7c1.3,0,2.5,0.3,3.6,0.8s2.1,1.2,2.9,2s1.5,1.8,2,3c0.5,1.1,0.7,2.3,0.7,3.5v8.9
		c0,1.3-0.2,2.4-0.7,3.6c-0.5,1.1-1.1,2.1-2,2.9c-0.8,0.8-1.8,1.5-2.9,2c-1.1,0.5-2.3,0.7-3.6,0.7h-6.5V139.3z M535.8,132v-5.7
		c0-0.5-0.1-1.1-0.3-1.6c-0.2-0.5-0.5-0.9-0.9-1.3s-0.8-0.7-1.3-0.9c-0.5-0.2-1-0.3-1.6-0.3s-1.1,0.1-1.6,0.3
		c-0.5,0.2-0.9,0.5-1.3,0.9c-0.4,0.4-0.6,0.8-0.9,1.3c-0.2,0.5-0.3,1.1-0.3,1.6v4.1c0,0.4,0.1,0.8,0.4,1.1c0.3,0.3,0.6,0.4,1.1,0.4
		H535.8z"/>
	<path class="st0" d="M550.2,103h-1.6h0c-0.5,0-0.8,0.2-1,0.4c-0.2,0.3-0.3,0.5-0.3,0.9c0,0.2,0,0.4,0.1,0.6c0,0.2,0.1,0.4,0.2,0.5
		s0.2,0.3,0.3,0.4c0.1,0.1,0.2,0.1,0.3,0.1h2.9v1.9h-6.2v-1.9h1c-0.2-0.5-0.3-1.1-0.3-1.6c0-0.4,0.1-0.8,0.2-1.2
		c0.1-0.4,0.3-0.7,0.5-1c0.2-0.3,0.6-0.5,1-0.7s0.9-0.3,1.5-0.3h1.6V103z M550.4,109.8v27.4h-5.2v-27.4H550.4z"/>
	<path class="st0" d="M561.4,119.3c0.4-0.2,1-0.4,1.6-0.7c0.7-0.3,1.4-0.5,2.2-0.7c0.8-0.2,1.6-0.4,2.4-0.6c0.8-0.2,1.6-0.2,2.4-0.2
		c0.8,0,1.5,0.1,2.3,0.2c0.8,0.1,1.5,0.3,2.1,0.6s1.3,0.7,1.9,1.1c0.6,0.5,1.1,1.1,1.5,1.8s0.8,1.5,1,2.5s0.4,2.1,0.4,3.3v4.1
		c0,0.9-0.2,1.8-0.5,2.6c-0.4,0.8-0.8,1.5-1.4,2.1c-0.6,0.6-1.3,1.1-2.1,1.4c-0.8,0.4-1.7,0.5-2.6,0.5h-5.3c-0.3,0-0.5,0.1-0.6,0.3
		c-0.1,0.2-0.2,0.4-0.2,0.7s0.1,0.5,0.2,0.7c0.1,0.2,0.3,0.3,0.6,0.3h4.8v5.2h-4.8c-1,0-1.9-0.2-2.6-0.5c-0.7-0.4-1.4-0.8-1.9-1.4
		c-0.5-0.6-0.9-1.2-1.1-2c-0.2-0.7-0.4-1.5-0.4-2.3s0.1-1.5,0.4-2.3c0.2-0.7,0.6-1.4,1.1-2s1.1-1,1.9-1.4c0.7-0.4,1.6-0.5,2.6-0.5
		h5.3c0.4,0,0.8-0.1,1.1-0.4c0.3-0.3,0.5-0.6,0.5-1.1v-4.1c0-0.8-0.1-1.5-0.3-2.1c-0.2-0.6-0.5-1-0.9-1.3s-0.8-0.6-1.3-0.7
		c-0.5-0.1-1-0.2-1.5-0.2c-0.5,0-1.1,0.1-1.7,0.2c-0.6,0.1-1.2,0.3-1.8,0.4c-0.6,0.2-1.1,0.4-1.6,0.6c-0.5,0.2-0.9,0.4-1.2,0.5
		L561.4,119.3z M574,141.8c0-0.4,0.1-0.7,0.2-1c0.1-0.3,0.3-0.6,0.6-0.8c0.2-0.2,0.5-0.4,0.8-0.6c0.3-0.1,0.7-0.2,1-0.2
		c0.4,0,0.7,0.1,1,0.2c0.3,0.1,0.6,0.3,0.8,0.6c0.2,0.2,0.4,0.5,0.6,0.8c0.1,0.3,0.2,0.6,0.2,1c0,0.4-0.1,0.7-0.2,1
		s-0.3,0.6-0.6,0.8c-0.2,0.2-0.5,0.4-0.8,0.6c-0.3,0.1-0.7,0.2-1,0.2c-0.4,0-0.7-0.1-1-0.2c-0.3-0.1-0.6-0.3-0.8-0.6
		c-0.2-0.2-0.4-0.5-0.6-0.8C574,142.5,574,142.1,574,141.8z"/>
	<path class="st0" d="M588.6,109.8v27.4h-5.2v-27.4H588.6z"/>
	<path class="st0" d="M595.6,139.3h6.5c0.8,0,1.5-0.2,2.1-0.5c0.6-0.4,1.1-0.9,1.4-1.5h-6c-0.9,0-1.8-0.2-2.6-0.5
		c-0.8-0.4-1.5-0.8-2.1-1.4c-0.6-0.6-1.1-1.3-1.4-2.1c-0.4-0.8-0.5-1.7-0.5-2.6v-4.1c0-1.3,0.2-2.5,0.7-3.7c0.5-1.1,1.1-2.1,2-3
		c0.8-0.9,1.8-1.5,2.9-2c1.1-0.5,2.3-0.7,3.6-0.7c1.3,0,2.5,0.3,3.6,0.8s2.1,1.2,2.9,2s1.5,1.8,2,3c0.5,1.1,0.7,2.3,0.7,3.5v8.9
		c0,1.3-0.2,2.4-0.7,3.6c-0.5,1.1-1.1,2.1-2,2.9c-0.8,0.8-1.8,1.5-2.9,2c-1.1,0.5-2.3,0.7-3.6,0.7h-6.5V139.3z M606.1,132v-5.7
		c0-0.5-0.1-1.1-0.3-1.6c-0.2-0.5-0.5-0.9-0.9-1.3s-0.8-0.7-1.3-0.9c-0.5-0.2-1-0.3-1.6-0.3s-1.1,0.1-1.6,0.3
		c-0.5,0.2-0.9,0.5-1.3,0.9c-0.4,0.4-0.6,0.8-0.9,1.3c-0.2,0.5-0.3,1.1-0.3,1.6v4.1c0,0.4,0.1,0.8,0.4,1.1c0.3,0.3,0.6,0.4,1.1,0.4
		H606.1z"/>
</g>
</svg>
